HIERARCHY
ROOT Hips
{
	OFFSET	0.000000	0.000000	0.000000
	CHANNELS 6 Xposition Yposition Zposition Zrotation Xrotation Yrotation
	JOINT LeftHip
	{
		OFFSET	4.740440	-3.195970	-0.322709
		CHANNELS 3 Zrotation Xrotation Yrotation
		JOINT LeftKnee
		{
			OFFSET	-1.605680	-15.592300	1.005510
			CHANNELS 3 Zrotation Xrotation Yrotation
			JOINT LeftAnkle
			{
				OFFSET	-0.632401	-16.421000	-1.413730
				CHANNELS 3 Zrotation Xrotation Yrotation
				End Site
				{
					OFFSET	0.008423	-2.933000	-1.684880
				}
			}
		}
	}
	JOINT RightHip
	{
		OFFSET	-4.740440	-3.195970	-0.322709
		CHANNELS 3 Zrotation Xrotation Yrotation
		JOINT RightKnee
		{
			OFFSET	1.605680	-15.592300	1.005510
			CHANNELS 3 Zrotation Xrotation Yrotation
			JOINT RightAnkle
			{
				OFFSET	0.632401	-16.421000	-1.413730
				CHANNELS 3 Zrotation Xrotation Yrotation
				End Site
				{
					OFFSET	-0.008423	-2.933000	-1.684880
				}
			}
		}
	}
	JOINT Chest
	{
		OFFSET	0.000000	3.468200	0.078401
		CHANNELS 3 Zrotation Xrotation Yrotation
		JOINT LeftCollar
		{
			OFFSET	3.857650	15.070700	-0.011583
			CHANNELS 3 Zrotation Xrotation Yrotation
			JOINT LeftShoulder
			{
				OFFSET	3.979720	-1.940530	-0.165223
				CHANNELS 3 Zrotation Xrotation Yrotation
				JOINT LeftElbow
				{
					OFFSET	0.615844	-10.986600	-0.673886
					CHANNELS 3 Zrotation Xrotation Yrotation
					JOINT LeftWrist
					{
						OFFSET	0.826843	-10.854500	1.034220
						CHANNELS 3 Zrotation Xrotation Yrotation
						End Site
						{
							OFFSET	-1.679080	-8.456540	0.936217
						}
					}
				}
			}
		}
		JOINT RightCollar
		{
			OFFSET	-3.857650	15.070700	-0.011583
			CHANNELS 3 Zrotation Xrotation Yrotation
			JOINT RightShoulder
			{
				OFFSET	-3.979720	-1.940530	-0.165223
				CHANNELS 3 Zrotation Xrotation Yrotation
				JOINT RightElbow
				{
					OFFSET	-0.615845	-10.986600	-0.673886
					CHANNELS 3 Zrotation Xrotation Yrotation
					JOINT RightWrist
					{
						OFFSET	-0.826843	-10.854500	1.034220
						CHANNELS 3 Zrotation Xrotation Yrotation
						End Site
						{
							OFFSET	1.679080	-8.456540	0.936217
						}
					}
				}
			}
		}
		JOINT Neck
		{
			OFFSET	0.000000	15.101400	0.055730
			CHANNELS 3 Zrotation Xrotation Yrotation
			JOINT Head
			{
				OFFSET	0.000000	4.185120	1.488260
				CHANNELS 3 Zrotation Xrotation Yrotation
				End Site
				{
					OFFSET	0.000000	7.773420	-0.106016
				}
			}
		}
	}
}
MOTION
Frames:     21
Frame Time: 0.016667
-12.597680	37.086315	66.432701	-3.790514	-9.223540	-7.301271	14.320779	-15.316805	7.816901	-8.173648	28.479006	15.497315	-6.240322	-1.581115	-3.155699	1.479245	8.844611	3.611661	12.582155	9.859239	-1.156721	-10.313890	-9.122459	0.027949	4.386474	10.910515	4.039498	4.450349	-0.085215	1.125270	-4.332170	6.572168	8.795688	-1.983482	-15.347433	-7.083059	10.795941	6.766668	-23.124475	-2.718191	-2.247885	-0.889034	-13.239531	-3.976206	0.280706	7.442788	-29.114286	5.836639	-13.359509	-2.017887	11.260607	2.331187	14.588190	0.002076	5.063076	22.635811	-7.703475	
-12.756894	36.919102	67.550865	-4.425103	-8.148102	-6.842063	14.738087	-16.558195	8.223233	-5.859195	19.777514	13.876755	-7.303572	3.357211	-4.195580	1.771700	10.569238	3.534288	13.892159	8.307135	-1.078390	-11.369385	-10.255367	-0.342538	4.768185	9.669562	4.214908	4.375377	0.039269	1.016565	-4.861550	6.519149	8.477777	-0.769952	-12.628787	-5.467689	11.188651	7.219350	-23.398258	-2.570703	-2.268558	-0.698383	-14.590217	-4.965807	0.434898	7.915870	-31.758059	5.999681	-13.361352	-2.749820	10.572092	2.512682	15.060811	-0.388906	5.550243	23.034405	-7.966327	
-12.810683	36.861378	68.058632	-4.649874	-7.699564	-6.662324	14.897396	-17.014429	8.187586	-5.095874	17.017216	13.177505	-8.845913	2.283616	-6.804599	1.858074	11.430828	3.496573	14.358429	7.495267	-0.987861	-11.679644	-10.528860	-0.532961	4.764017	9.110002	4.483035	4.501063	0.131564	0.758266	-4.980100	6.482257	8.375733	-0.441951	-11.714698	-4.998383	11.358268	7.420760	-23.569338	-2.374609	-2.220100	-0.856155	-14.981379	-5.295135	0.421169	7.999461	-32.495819	6.068885	-13.547925	-4.277385	10.616464	2.796442	15.225448	-0.789225	5.669733	22.956116	-7.934410	
-13.146312	36.540577	69.034515	-5.364603	-6.530549	-6.431313	15.559965	-18.150297	7.650878	-2.068551	8.087401	9.512671	-10.872595	7.391452	-6.077483	2.501492	11.591363	3.512772	15.964929	8.341911	-1.725655	-12.908186	-12.372296	-0.544451	5.388218	7.849170	4.549573	4.154130	0.316680	0.818064	-5.146035	6.387465	8.141513	0.401669	-9.123957	-3.841552	11.630636	8.120348	-24.309149	-2.460707	-2.287791	-0.397020	-15.893416	-6.095498	0.070083	8.065521	-34.411594	6.286339	-13.114045	-3.383447	10.269010	2.648438	15.517251	-1.007422	6.109014	23.213951	-8.012093	
-13.299845	36.461411	69.463890	-5.610547	-6.394274	-6.435516	15.751245	-18.415302	7.124919	-2.057609	8.213846	10.034029	-10.858739	4.827646	-9.627789	2.540726	12.708096	3.508498	16.863935	8.476894	-2.000484	-13.410718	-13.090842	-0.392178	5.578350	7.652040	4.611385	4.018171	0.384659	0.834732	-5.149085	6.410523	8.075730	0.645468	-8.317988	-3.570909	11.629562	8.336782	-24.570713	-2.762019	-2.489623	0.143062	-15.903257	-5.990973	-0.446488	8.082682	-34.931282	6.378125	-13.070405	-3.457411	10.222949	2.412678	15.677587	-1.052026	6.346068	23.184271	-7.982839	
-13.451301	36.211094	68.507462	-6.250400	-6.868647	-6.592824	15.023849	-18.403843	5.015835	0.753577	4.880354	8.520430	-12.487476	6.332477	-6.888294	2.816531	14.380224	3.273819	17.909712	8.990829	-2.124415	-13.949786	-13.586758	-0.119970	5.972904	7.972867	4.710373	3.492665	0.667649	0.958910	-5.013256	6.362753	7.942642	1.272072	-6.125140	-2.996902	11.436221	8.987065	-25.428644	-2.800274	-2.441280	0.441469	-16.558744	-6.545400	-0.742858	8.084790	-36.175179	6.323216	-13.165898	-3.675977	9.920356	2.371584	15.917279	-0.994588	6.376626	23.284243	-8.236365	
-13.252949	36.226677	68.533440	-6.350801	-7.195211	-6.632506	14.685385	-18.112822	4.305665	0.753983	4.914736	8.477720	-12.395396	5.965587	-5.718407	2.493536	15.665754	2.707954	19.074627	9.993725	-2.278201	-14.616680	-14.693221	0.405882	5.976183	8.240925	4.684122	3.314766	0.764605	1.051856	-4.959988	6.335325	7.942681	1.464921	-5.443684	-2.919314	11.340614	9.135985	-25.705359	-2.976470	-2.484270	0.744783	-16.531616	-6.589533	-0.983756	7.993588	-36.444202	6.176578	-13.244668	-3.740828	9.797361	2.299625	15.997086	-0.883978	6.346385	23.237646	-8.400762	
-13.051180	36.380219	69.159561	-6.082592	-7.797536	-6.730871	14.331134	-17.436522	2.705796	-0.106631	6.710614	10.264812	-11.853115	5.421839	-5.389440	1.530913	17.033205	2.055667	20.528662	11.454166	-2.488086	-14.988946	-13.392071	1.144505	5.525305	8.646112	4.545373	2.840658	1.045755	1.542751	-4.964828	6.237326	8.053959	2.083070	-3.595955	-2.885319	11.220055	9.451075	-26.484821	-3.062443	-2.450274	1.183857	-16.676447	-6.850273	-1.134328	7.542505	-36.902115	5.600739	-13.587655	-3.892233	9.328539	1.695581	16.189117	-0.396673	6.821416	23.166500	-8.630736	
-12.776320	36.479774	70.037987	-5.934232	-7.707097	-6.883861	14.345998	-17.557152	2.618290	-1.422494	9.076170	10.500397	-10.655730	6.936990	-4.522963	0.508966	17.531103	1.497168	22.339478	13.364321	-2.986059	-15.769629	-14.346725	1.948124	5.352455	8.470927	4.605362	2.734884	1.144354	1.727147	-5.059531	6.265882	8.166113	2.285461	-3.126302	-2.866500	11.261375	9.539130	-26.744360	-3.236954	-2.615933	1.333075	-16.509615	-6.757258	-1.118940	7.367600	-36.813202	5.459858	-13.746880	-3.955191	9.139051	1.433446	16.246866	-0.172295	6.784876	23.056839	-8.827603	
-12.685261	36.459644	71.075470	-5.673618	-8.090413	-7.599615	14.168028	-17.012690	3.663384	-1.453132	11.865631	11.655549	-10.713157	10.851643	-4.693692	-0.881911	18.319139	1.506824	24.156923	15.718241	-3.875424	-16.473368	-11.239435	2.919522	4.895374	8.367311	4.584720	2.245044	1.465640	2.410056	-5.243636	6.629273	8.865965	2.881052	-2.130364	-2.662103	11.683762	9.796166	-27.451973	-3.093025	-2.540886	2.000280	-16.498772	-6.417679	-0.982812	6.889432	-36.510517	4.969376	-14.212459	-3.985862	8.901739	1.046400	16.353670	0.607154	6.575448	23.304895	-8.915534	
-12.289008	36.436947	71.746506	-5.467765	-8.846465	-7.801756	13.321625	-16.351650	3.504331	-2.175966	13.653275	9.583850	-9.808203	11.996582	-2.126787	-2.166356	18.887976	1.098711	26.386818	18.786549	-5.424867	-17.788963	-11.733367	3.825427	4.533420	8.964307	4.464570	1.991761	1.627015	2.594759	-5.168461	6.692332	9.107612	3.003931	-1.897150	-2.476395	11.929700	9.806907	-27.582615	-3.024544	-2.440549	2.101405	-16.438763	-6.466691	-0.905908	6.778684	-36.187759	4.904497	-14.332573	-4.009501	8.892065	1.289860	16.211843	0.590425	6.199070	23.650608	-8.910256	
-11.848083	36.363220	72.388802	-4.224647	-10.582122	-8.018250	11.735450	-14.820372	6.081904	-3.750512	16.260052	6.233099	-6.294729	10.742692	-1.698005	-4.989895	19.332319	1.524002	29.805676	22.502857	-8.441083	-21.290051	-5.111138	3.163378	3.095911	10.628359	4.549632	1.358181	1.913993	2.528680	-4.902880	6.529991	9.242656	3.109018	-1.143896	-1.800879	12.492752	9.803523	-27.383522	-3.283743	-2.236454	2.253610	-15.659394	-6.294938	-1.688290	6.415247	-34.902401	5.131375	-14.748427	-4.249434	8.894958	0.366203	15.917659	0.387702	6.640910	23.936169	-8.470742	
-11.727073	36.392136	73.042229	-3.787317	-11.077464	-7.772038	11.081142	-14.561040	7.328013	-3.929413	18.840578	4.021454	-5.121526	8.850800	-1.246692	-6.537595	17.899992	1.198861	34.170994	26.587872	-11.810259	-24.913645	-4.075288	2.548519	2.756428	11.199084	4.233325	1.127115	1.824614	2.566012	-4.820273	6.457458	9.146051	3.169762	-0.876412	-1.645791	12.546826	9.871785	-27.187567	-3.731491	-2.047229	2.240288	-14.958782	-6.326921	-2.018329	6.201120	-34.392361	5.341875	-14.902600	-4.339226	8.920591	-1.077867	16.130819	0.246077	7.481053	23.491877	-7.948267	
-11.470761	36.373508	73.625877	-2.792042	-12.489579	-7.295359	8.945428	-12.940443	9.641519	-2.921418	20.373775	0.668900	-3.349750	7.267682	-0.991833	-8.354127	17.012278	0.967960	38.999340	31.047640	-15.765095	-29.450745	4.247886	-0.413110	2.331628	12.810581	3.602659	0.433844	1.436814	2.590647	-4.766546	6.369753	8.928823	3.343398	-0.576406	-1.587852	12.411926	10.430416	-26.955893	-4.720717	-2.157990	2.239231	-13.130068	-5.422177	-2.047962	4.871995	-32.589645	4.994219	-15.399940	-4.463799	9.089954	-2.244995	16.003757	0.765551	7.817525	23.164055	-8.292733	
-11.187051	36.430706	74.266769	-2.410372	-13.100602	-7.181032	8.169841	-11.521373	10.460510	-3.320917	21.248878	0.664965	-2.260763	5.501721	-1.797812	-8.980713	16.407612	1.005570	43.280823	34.248871	-18.644655	-31.465712	4.861386	-2.727576	2.053371	13.482075	3.418556	0.309217	1.268873	2.625910	-4.771850	6.341513	8.917376	3.386392	-0.630114	-1.618647	12.149339	10.407651	-27.542973	-4.995421	-2.250332	2.218309	-12.478881	-5.116712	-1.775570	4.355897	-31.851147	4.647203	-15.502785	-4.425706	9.202339	-2.415800	15.822967	0.930867	7.699084	23.201553	-8.385530	
-11.004337	36.588593	75.259407	-0.665403	-14.782705	-6.856811	5.552102	-7.247944	11.125906	-3.427245	19.848774	0.727007	-1.670245	3.908952	-2.581386	-11.075877	13.893393	1.419373	48.773296	38.793926	-23.495008	-31.796833	10.151341	-8.422582	0.347443	15.552366	2.976295	0.127502	0.679103	2.663146	-4.636241	6.117768	8.961106	3.293685	-1.342429	-1.605743	11.827893	10.687049	-27.755045	-5.224796	-2.635144	2.108582	-11.406252	-4.457983	-1.000746	3.684582	-29.369646	3.908253	-15.398651	-4.284237	9.759898	-2.226723	14.642399	0.631282	6.518001	23.850454	-7.721514	
-10.887515	36.581905	75.782776	0.115736	-14.919874	-6.682709	4.591261	-6.539338	11.013431	-3.766689	20.409973	1.132794	-1.351126	2.610759	-2.779868	-11.812488	12.588233	1.502615	51.093979	40.225163	-25.447914	-32.455128	10.689562	-10.631274	-0.450719	15.812783	2.807447	0.137195	0.546918	2.592497	-4.500611	6.025770	9.008610	3.127651	-1.767104	-1.603385	11.720012	9.934149	-27.916151	-5.186481	-2.651810	2.051966	-11.195010	-4.383775	-0.883861	3.733276	-28.461239	3.899310	-15.275350	-4.290732	9.999158	-2.217685	14.354741	0.588792	6.228732	23.985783	-7.433342	
-10.846405	36.563641	76.573212	2.320820	-14.724566	-5.886924	2.021568	-5.642052	9.295110	-4.250109	20.089655	2.174062	-1.395918	1.375949	-2.239218	-13.548518	8.154135	1.247520	56.602188	43.389923	-30.837280	-36.423553	10.932088	-13.620308	-2.729459	15.857464	1.955591	0.207326	0.229846	2.189198	-3.571762	5.769238	8.905206	2.384185	-3.167815	-1.706001	11.496426	10.145336	-27.459015	-4.880008	-2.436030	1.843126	-10.282949	-4.222037	-0.489919	3.805990	-24.156702	4.082773	-15.216180	-5.960384	10.475533	-2.451575	14.214043	0.921871	6.033887	23.798876	-6.882726	
-10.789431	36.558102	77.026146	2.782876	-14.512134	-5.597926	1.421570	-5.506076	8.439896	-4.552869	20.646238	2.372894	-1.369006	0.315614	-1.684532	-13.827076	6.649528	0.863398	57.654495	44.327385	-32.017891	-37.741318	10.766556	-13.557343	-3.211951	15.692572	1.601657	0.263010	0.181912	1.990421	-3.134753	5.647208	8.792255	2.094039	-3.676296	-1.841574	11.629187	9.047755	-27.632492	-4.742938	-2.303832	1.766034	-9.880372	-4.133899	-0.259136	3.754355	-21.623701	4.114727	-15.400223	-7.547810	10.388170	-2.353395	14.275621	1.067962	5.947365	23.763807	-6.849612	
-10.675086	36.688953	77.826363	3.383414	-13.389650	-4.738748	0.426206	-5.202986	6.221405	-4.967284	19.859234	3.540883	-1.540248	-0.577358	-1.264412	-13.726105	2.102881	-1.249145	58.275223	47.219925	-33.705299	-38.510036	9.730999	-12.761995	-3.848106	14.709588	0.565773	0.527928	0.030395	1.256718	-1.813602	5.209314	8.377028	1.344459	-5.332917	-2.584295	11.522656	9.633052	-26.819309	-4.313625	-1.789104	1.311238	-8.196114	-3.343013	0.444236	2.397409	-20.233259	4.265635	-14.594012	-5.080355	12.046082	-1.617496	14.489232	1.002833	5.348642	23.963810	-6.518549	
-10.593369	36.733067	78.245056	3.460379	-13.094473	-4.423395	0.211939	-4.886159	5.670605	-5.179658	19.949598	3.904642	-1.516929	-1.299363	-1.344731	-13.555787	0.851632	-1.936807	57.690926	47.911625	-33.670055	-38.016758	9.427082	-12.285181	-3.909209	14.480838	0.227042	0.627143	-0.047334	1.012464	-1.395303	5.012463	8.261608	1.127249	-5.938530	-2.977988	12.173685	8.349422	-27.170036	-4.207013	-1.630154	1.107852	-7.454643	-2.655747	0.468059	2.082701	-18.153152	4.442731	-14.693668	-5.010862	12.556268	-1.370961	14.528945	0.824350	5.136059	24.141310	-6.331741	
